<?xml version="1.0" standalone="no"?>
<!DOCTYPE svg PUBLIC "-//W3C//DTD SVG 20010904//EN"
 "http://www.w3.org/TR/2001/REC-SVG-20010904/DTD/svg10.dtd">
<svg version="1.0" xmlns="http://www.w3.org/2000/svg"
 width="512.000000pt" height="512.000000pt" viewBox="0 0 512.000000 512.000000"
 preserveAspectRatio="xMidYMid meet">

<g transform="translate(0.000000,512.000000) scale(0.100000,-0.100000)"
fill="#000000" stroke="none">
<path d="M2475 4501 c-105 -7 -154 -31 -224 -106 -61 -66 -83 -122 -89 -226
l-5 -87 959 -4 c1071 -4 993 2 1051 -75 l28 -36 0 -1407 0 -1407 -28 -36 c-58
-76 20 -71 -1051 -75 l-959 -4 5 -89 c7 -112 36 -177 113 -248 101 -92 24 -86
1130 -86 l970 0 56 26 c73 35 128 85 165 151 l29 53 6 360 c9 465 9 2245 0
2710 l-6 360 -29 53 c-37 66 -92 116 -165 151 l-56 26 -905 1 c-498 1 -945 -1
-995 -5z"/>
<path d="M2325 3576 c-16 -7 -74 -59 -127 -114 -88 -91 -98 -105 -98 -138 0
-40 -3 -37 380 -426 l135 -138 -1030 0 -1030 0 -28 -23 c-39 -31 -49 -93 -41
-237 6 -105 9 -117 32 -142 l26 -28 1033 0 c568 0 1033 -3 1033 -7 0 -4 -112
-120 -249 -258 -249 -250 -270 -277 -257 -327 7 -29 115 -149 179 -199 36 -29
58 -39 85 -39 34 0 60 24 499 462 255 255 477 483 494 507 65 98 63 101 -404
569 -563 565 -566 568 -632 538z"/>
</g>
</svg>
