<?xml version="1.0" standalone="no"?>
<!DOCTYPE svg PUBLIC "-//W3C//DTD SVG 20010904//EN"
 "http://www.w3.org/TR/2001/REC-SVG-20010904/DTD/svg10.dtd">
<svg version="1.0" xmlns="http://www.w3.org/2000/svg"
 width="46.000000pt" height="41.000000pt" viewBox="0 0 46.000000 41.000000"
 preserveAspectRatio="xMidYMid meet">

<g transform="translate(0.000000,41.000000) scale(0.100000,-0.100000)"
fill="#000000" stroke="none">
<path d="M0 206 c0 -119 4 -197 10 -201 7 -4 10 63 10 194 0 127 -4 201 -10
201 -6 0 -10 -71 -10 -194z"/>
<path d="M438 200 c-2 -130 0 -199 7 -197 13 5 19 397 6 397 -6 0 -11 -78 -13
-200z"/>
<path d="M136 357 c-13 -10 -17 -24 -14 -57 l3 -45 75 0 75 0 3 45 c3 33 -1
47 -14 57 -23 17 -105 17 -128 0z m124 -52 l0 -45 -60 0 -60 0 0 45 0 45 60 0
60 0 0 -45z"/>
<path d="M173 303 c9 -2 23 -2 30 0 6 3 -1 5 -18 5 -16 0 -22 -2 -12 -5z"/>
<path d="M337 363 c-15 -4 -17 -13 -15 -56 l3 -52 45 0 45 0 3 45 c4 60 -20
79 -81 63z m63 -59 c0 -45 0 -45 -32 -42 -31 3 -33 6 -36 46 l-3 42 35 0 c36
0 36 0 36 -46z"/>
<path d="M35 350 c4 -6 11 -8 16 -5 14 9 11 15 -7 15 -8 0 -12 -5 -9 -10z"/>
<path d="M78 354 c-13 -12 -10 -342 3 -349 6 -4 11 -5 12 -4 6 12 -9 359 -15
353z"/>
<path d="M38 303 c7 -3 16 -2 19 1 4 3 -2 6 -13 5 -11 0 -14 -3 -6 -6z"/>
<path d="M38 253 c7 -3 16 -2 19 1 4 3 -2 6 -13 5 -11 0 -14 -3 -6 -6z"/>
<path d="M127 204 c-11 -11 -8 -104 3 -104 6 0 10 23 10 50 l0 50 130 0 130 0
0 -70 0 -70 -125 0 c-110 0 -124 2 -118 16 4 11 14 14 34 10 23 -4 32 1 57 32
29 35 31 36 49 19 24 -21 43 -22 69 -2 15 11 16 14 4 15 -9 0 -22 -6 -29 -12
-10 -11 -16 -9 -31 10 -26 31 -45 28 -69 -13 -17 -29 -25 -34 -45 -29 -17 4
-30 -1 -45 -17 -42 -45 -32 -49 119 -49 161 0 154 -5 148 105 l-3 60 -141 3
c-77 1 -143 -1 -147 -4z"/>
<path d="M32 49 c5 -14 21 -14 26 0 2 6 -4 11 -13 11 -9 0 -15 -5 -13 -11z"/>
</g>
</svg>
