<?xml version="1.0" standalone="no"?>
<!DOCTYPE svg PUBLIC "-//W3C//DTD SVG 20010904//EN"
 "http://www.w3.org/TR/2001/REC-SVG-20010904/DTD/svg10.dtd">
<svg version="1.0" xmlns="http://www.w3.org/2000/svg"
 width="42.000000pt" height="42.000000pt" viewBox="0 0 42.000000 42.000000"
 preserveAspectRatio="xMidYMid meet">

<g transform="translate(0.000000,42.000000) scale(0.100000,-0.100000)"
fill="#000000" stroke="none">
<path d="M187 364 c-4 -4 -7 -13 -7 -21 0 -10 20 -13 80 -13 l80 0 0 -120 0
-120 -81 0 c-71 0 -80 -2 -77 -17 3 -16 16 -18 98 -18 l95 0 0 155 0 155 -90
3 c-50 1 -94 0 -98 -4z"/>
<path d="M176 281 c-3 -4 4 -17 15 -27 21 -19 20 -19 -62 -24 -70 -4 -84 -8
-87 -22 -3 -16 6 -18 84 -18 l87 0 -22 -23 c-18 -20 -19 -26 -8 -35 10 -9 23
-2 56 32 l43 44 -37 41 c-36 40 -58 50 -69 32z"/>
</g>
</svg>
