<?xml version="1.0" standalone="no"?>
<!DOCTYPE svg PUBLIC "-//W3C//DTD SVG 20010904//EN"
 "http://www.w3.org/TR/2001/REC-SVG-20010904/DTD/svg10.dtd">
<svg version="1.0" xmlns="http://www.w3.org/2000/svg"
 width="40.000000pt" height="49.000000pt" viewBox="0 0 40.000000 49.000000"
 preserveAspectRatio="xMidYMid meet">

<g transform="translate(0.000000,49.000000) scale(0.100000,-0.100000)"
fill="#000000" stroke="none">
<path d="M172 483 c-13 -3 -27 -15 -32 -29 -7 -18 -17 -24 -38 -24 -32 0 -52
-16 -52 -42 0 -23 -1 -23 158 3 135 23 158 33 132 64 -9 10 -24 13 -54 9 -34
-5 -44 -3 -49 10 -6 16 -19 18 -65 9z m48 -22 c0 -11 -50 -24 -58 -16 -8 8 19
25 41 25 9 0 17 -4 17 -9z m104 -20 c3 -5 -33 -16 -82 -25 -148 -26 -172 -29
-172 -19 0 8 65 22 242 52 4 0 9 -3 12 -8z"/>
<path d="M82 351 c-11 -7 -13 -36 -7 -152 4 -79 11 -154 16 -166 8 -22 14 -23
113 -23 83 0 106 3 117 16 19 23 36 299 19 319 -10 12 -38 15 -129 15 -64 0
-122 -4 -129 -9z m243 -143 c-9 -196 2 -178 -115 -178 -54 0 -101 3 -103 7 -3
5 -8 74 -12 156 l-7 147 122 0 122 0 -7 -132z"/>
<path d="M108 315 c-6 -6 -1 -149 8 -222 4 -34 9 -43 25 -43 11 0 22 6 25 13
2 7 1 67 -3 133 -7 109 -10 119 -28 122 -12 2 -24 0 -27 -3z m32 -53 c0 -22 3
-75 6 -118 5 -53 3 -76 -4 -69 -12 12 -22 225 -10 225 4 0 8 -17 8 -38z"/>
<path d="M184 305 c-4 -9 -3 -19 1 -23 4 -4 10 -1 12 6 3 6 9 12 14 12 5 0 9
-52 9 -115 0 -70 -4 -115 -10 -115 -6 0 -10 32 -10 77 0 54 -3 74 -10 67 -6
-6 -10 -43 -8 -85 3 -71 4 -74 28 -74 l25 0 0 130 c0 127 0 130 -23 133 -13 2
-25 -3 -28 -13z"/>
<path d="M267 313 c-3 -5 -7 -64 -8 -133 -4 -121 -3 -125 17 -128 19 -3 22 3
28 50 5 46 9 168 7 206 -1 13 -37 17 -44 5z m25 -115 c-2 -57 -8 -110 -13
-118 -6 -11 -8 -5 -9 20 0 62 13 200 19 200 3 0 4 -46 3 -102z"/>
</g>
</svg>
