<?xml version="1.0" standalone="no"?>
<!DOCTYPE svg PUBLIC "-//W3C//DTD SVG 20010904//EN"
 "http://www.w3.org/TR/2001/REC-SVG-20010904/DTD/svg10.dtd">
<svg version="1.0" xmlns="http://www.w3.org/2000/svg"
 width="42.000000pt" height="37.000000pt" viewBox="0 0 42.000000 37.000000"
 preserveAspectRatio="xMidYMid meet">

<g transform="translate(0.000000,37.000000) scale(0.100000,-0.100000)"
fill="#000000" stroke="none">
<path d="M76 360 c-58 -18 -87 -73 -71 -137 8 -33 182 -213 205 -213 23 0 197
180 205 213 10 38 -2 91 -24 111 -10 9 -33 21 -52 26 -28 8 -42 6 -83 -14 -47
-24 -49 -24 -80 -6 -43 25 -66 29 -100 20z m101 -56 l33 -25 33 25 c62 48 147
25 147 -39 0 -42 -23 -75 -104 -153 l-76 -72 -76 72 c-81 78 -104 111 -104
153 0 64 85 87 147 39z"/>
</g>
</svg>
