<?xml version="1.0" standalone="no"?>
<!DOCTYPE svg PUBLIC "-//W3C//DTD SVG 20010904//EN"
 "http://www.w3.org/TR/2001/REC-SVG-20010904/DTD/svg10.dtd">
<svg version="1.0" xmlns="http://www.w3.org/2000/svg"
 width="36.000000pt" height="36.000000pt" viewBox="0 0 36.000000 36.000000"
 preserveAspectRatio="xMidYMid meet">

<g transform="translate(0.000000,36.000000) scale(0.100000,-0.100000)"
fill="#000000" stroke="none">
<path d="M37 342 c-14 -16 -17 -43 -17 -164 0 -130 2 -147 19 -162 13 -11 31
-16 55 -14 48 4 47 22 -1 28 l-38 5 0 145 0 145 104 3 c77 2 107 -1 113 -10 4
-7 8 -37 8 -65 0 -29 5 -53 10 -53 6 0 10 28 10 64 0 92 -6 96 -139 96 -92 0
-110 -3 -124 -18z"/>
<path d="M87 274 c-18 -19 0 -24 79 -24 64 0 85 3 82 13 -5 13 -148 23 -161
11z"/>
<path d="M80 205 c0 -13 13 -15 80 -13 107 4 108 22 3 26 -70 2 -83 0 -83 -13z"/>
<path d="M238 123 c-51 -52 -75 -100 -59 -116 16 -16 73 10 118 55 43 42 53
74 31 96 -21 21 -43 13 -90 -35z m72 7 c0 -5 -4 -10 -10 -10 -5 0 -10 5 -10
10 0 6 5 10 10 10 6 0 10 -4 10 -10z m-30 -32 c0 -16 -41 -58 -57 -58 -19 0
-16 11 14 42 29 30 43 35 43 16z"/>
<path d="M82 148 c5 -15 50 -22 84 -14 43 11 25 26 -32 26 -40 0 -55 -4 -52
-12z"/>
</g>
</svg>
