<?xml version="1.0" standalone="no"?>
<!DOCTYPE svg PUBLIC "-//W3C//DTD SVG 20010904//EN"
 "http://www.w3.org/TR/2001/REC-SVG-20010904/DTD/svg10.dtd">
<svg version="1.0" xmlns="http://www.w3.org/2000/svg"
 width="46.000000pt" height="48.000000pt" viewBox="0 0 46.000000 48.000000"
 preserveAspectRatio="xMidYMid meet">

<g transform="translate(0.000000,48.000000) scale(0.100000,-0.100000)"
fill="#000000" stroke="none">
<path d="M285 446 c-47 -27 -58 -64 -26 -93 11 -11 21 -34 23 -58 l3 -40 58
-3 57 -3 0 41 c0 32 6 46 27 64 33 28 27 72 -12 82 -13 3 -29 12 -36 20 -16
20 -48 17 -94 -10z m97 -5 c6 -10 17 -17 23 -15 7 3 18 -2 25 -11 20 -25 -2
-65 -37 -66 -16 0 -22 -3 -15 -6 6 -2 12 -19 11 -36 0 -27 -2 -29 -9 -12 -7
17 -9 17 -9 3 -1 -10 -5 -18 -11 -18 -5 0 -11 8 -11 18 -1 16 -2 16 -6 0 -6
-23 -23 -23 -24 0 -1 16 -2 16 -6 0 -8 -30 -23 -20 -23 15 0 21 -7 36 -20 45
-11 7 -20 23 -20 37 0 24 3 27 33 29 6 1 18 9 25 19 17 23 59 22 74 -2z"/>
<path d="M50 382 c0 -32 -5 -41 -25 -50 l-25 -12 0 -147 0 -148 230 0 230 0
-2 149 c-2 111 -6 150 -16 152 -7 1 -8 0 -2 -3 6 -3 10 -54 10 -130 l0 -124
-22 8 c-13 4 -60 7 -106 7 l-83 -1 3 121 3 121 -36 32 c-41 37 -96 63 -134 63
-22 0 -25 -4 -25 -38z m85 14 c19 -8 46 -26 60 -40 24 -24 25 -30 25 -147 l0
-122 -22 20 c-30 27 -65 45 -103 53 l-30 6 -3 122 c-3 117 -2 122 18 122 11 0
36 -7 55 -14z m78 -335 c9 -9 3 -9 -23 -4 -43 10 -104 10 -150 1 l-35 -7 30
15 c35 17 160 13 178 -5z m212 3 c17 -8 23 -12 14 -10 -51 14 -110 16 -153 6
-56 -12 -75 -6 -25 9 51 14 130 12 164 -5z m-218 -22 c6 -4 -35 -7 -92 -7 -57
0 -102 2 -100 4 19 19 159 21 192 3z m229 0 c7 -4 -34 -7 -91 -7 -57 0 -102 2
-100 4 20 19 158 22 191 3z"/>
<path d="M140 357 c0 -2 15 -14 33 -27 20 -15 27 -17 18 -6 -13 16 -51 41 -51
33z"/>
<path d="M105 330 c3 -6 12 -10 19 -10 7 0 25 -10 40 -21 15 -12 29 -19 32
-16 6 5 -37 34 -72 47 -16 7 -23 7 -19 0z"/>
<path d="M134 280 c21 -11 45 -25 55 -32 14 -12 15 -11 2 5 -16 21 -64 47 -83
47 -7 -1 4 -9 26 -20z"/>
<path d="M100 245 c0 -14 2 -25 4 -25 2 0 11 -3 20 -6 12 -5 16 0 16 19 0 14
-7 28 -16 31 -23 9 -24 8 -24 -19z"/>
<path d="M174 221 c20 -22 26 -25 26 -13 0 4 -10 13 -22 21 -23 14 -23 14 -4
-8z"/>
<path d="M160 195 c0 -2 10 -10 23 -16 20 -11 21 -11 8 4 -13 16 -31 23 -31
12z"/>
<path d="M280 207 c0 -14 7 -30 15 -37 14 -12 14 -15 -1 -31 -25 -28 -10 -34
23 -11 l29 21 32 -21 c18 -11 36 -18 39 -14 9 9 -18 37 -35 34 -21 -4 -26 41
-6 64 10 10 12 18 7 18 -6 0 -17 -10 -25 -22 l-15 -22 -31 23 -32 22 0 -24z
m59 -31 c11 -13 8 -14 -16 -7 -15 4 -30 15 -31 25 -3 15 0 16 15 7 11 -5 25
-17 32 -25z"/>
<path d="M382 198 c-7 -7 -12 -16 -12 -20 0 -12 38 -10 46 3 4 8 -1 9 -17 4
-21 -7 -22 -6 -10 9 16 19 11 22 -7 4z"/>
</g>
</svg>
