<?xml version="1.0" standalone="no"?>
<!DOCTYPE svg PUBLIC "-//W3C//DTD SVG 20010904//EN"
 "http://www.w3.org/TR/2001/REC-SVG-20010904/DTD/svg10.dtd">
<svg version="1.0" xmlns="http://www.w3.org/2000/svg"
 width="51.000000pt" height="51.000000pt" viewBox="0 0 51.000000 51.000000"
 preserveAspectRatio="xMidYMid meet">

<g transform="translate(0.000000,51.000000) scale(0.100000,-0.100000)"
fill="#000000" stroke="none">
<path d="M133 376 c-49 -23 -113 -91 -113 -121 0 -7 14 -31 31 -54 90 -125
324 -122 412 5 33 47 31 66 -11 115 -65 78 -214 103 -319 55z m247 -50 c53
-35 68 -67 47 -99 -40 -61 -154 -92 -244 -68 -47 13 -113 69 -113 96 0 24 64
82 103 95 18 5 62 8 99 6 53 -3 77 -9 108 -30z"/>
<path d="M199 311 c-31 -31 -36 -55 -18 -94 11 -25 47 -47 74 -47 45 0 85 43
85 91 0 30 -53 79 -85 79 -16 0 -38 -12 -56 -29z m83 -28 c10 -9 18 -21 18
-26 0 -15 -31 -47 -46 -47 -17 0 -44 28 -44 45 0 16 27 45 42 45 6 0 20 -7 30
-17z"/>
</g>
</svg>
